<svg width="516" height="146" viewBox="0 0 516 146" fill="none" xmlns="http://www.w3.org/2000/svg">
<path d="M90.3 104.26L85.36 91.65H46.62L41.81 104.26C39.6 109.85 40.51 112.71 47.4 113.75C49.22 114.14 49.48 114.4 49.48 115.57C49.48 116.74 49.09 117 48.05 117H27.64C26.47 117 26.08 116.74 26.08 115.7C26.08 114.79 26.34 114.53 27.77 113.62C31.28 111.8 33.62 109.59 36.35 102.57L65.86 26.26C66.25 25.35 66.64 24.57 68.07 24.57C69.24 24.57 69.63 25.35 70.15 26.26L99.92 102.44C102.65 109.46 104.99 111.8 108.5 113.62C109.93 114.53 110.19 114.79 110.19 115.7C110.19 116.74 109.8 117 108.76 117H84.06C83.02 117 82.5 116.74 82.5 115.57C82.5 114.4 82.89 114.14 84.71 113.75C91.6 112.71 92.51 109.85 90.3 104.26ZM48.83 85.93H83.15L65.86 41.99L48.83 85.93ZM156.363 105.69C157.013 105.17 157.403 104.91 157.923 104.91C158.703 104.91 159.223 105.43 159.223 106.21C159.223 106.99 158.963 107.64 158.313 108.68C156.363 111.67 150.383 118.56 139.073 118.56C120.483 118.56 110.083 105.04 110.083 83.46C110.083 65 121.263 50.05 138.293 50.05C152.073 50.05 158.443 57.07 158.443 62.66C158.443 65.65 156.753 67.73 154.023 67.73C151.553 67.73 150.123 66.43 148.693 64.09C145.833 59.41 142.583 55.38 136.863 55.38C125.553 55.38 119.313 68.51 119.313 82.03C119.313 99.32 127.113 111.02 141.153 111.02C148.173 111.02 153.113 108.16 156.363 105.69ZM209.562 105.69C210.212 105.17 210.602 104.91 211.122 104.91C211.902 104.91 212.422 105.43 212.422 106.21C212.422 106.99 212.162 107.64 211.512 108.68C209.562 111.67 203.582 118.56 192.272 118.56C173.682 118.56 163.282 105.04 163.282 83.46C163.282 65 174.462 50.05 191.492 50.05C205.272 50.05 211.642 57.07 211.642 62.66C211.642 65.65 209.952 67.73 207.222 67.73C204.752 67.73 203.322 66.43 201.892 64.09C199.032 59.41 195.782 55.38 190.062 55.38C178.752 55.38 172.512 68.51 172.512 82.03C172.512 99.32 180.312 111.02 194.352 111.02C201.372 111.02 206.312 108.16 209.562 105.69ZM276.546 84.24C276.546 105.04 262.246 118.69 246.126 118.69C230.396 118.69 215.966 105.04 215.966 84.24C215.966 63.57 230.396 49.92 246.126 49.92C262.116 49.92 276.546 63.57 276.546 84.24ZM266.146 84.24C266.146 66.69 258.476 54.99 246.126 54.99C234.036 54.99 226.366 66.69 226.366 84.24C226.366 101.79 234.036 113.62 246.126 113.62C258.476 113.62 266.146 101.79 266.146 84.24ZM287.317 67.6C287.317 58.63 286.147 56.94 281.987 55.38C280.557 54.86 279.907 54.47 279.907 53.43C279.907 52.39 280.297 51.61 282.637 51.61H294.207C296.287 51.61 296.677 52.13 296.677 53.56V96.59C296.677 106.08 301.227 111.8 308.767 111.8C318.517 111.8 325.407 101.4 325.407 93.47V67.6C325.407 58.63 323.847 56.94 317.347 55.25C315.917 54.86 315.527 54.34 315.527 53.3C315.527 52.13 316.177 51.61 317.737 51.61H332.037C334.117 51.61 334.507 52.13 334.507 53.56V103.22C334.507 110.24 335.547 110.76 341.397 111.41C342.957 111.54 343.347 111.93 343.347 112.97C343.347 114.01 342.957 114.27 341.527 114.66L328.267 118.3C326.057 118.95 325.407 118.17 325.407 116.35V106.34C323.717 109.2 317.607 118.56 306.037 118.56C294.467 118.56 287.317 110.37 287.317 98.28V67.6ZM368.206 117H345.066C343.896 117 343.506 116.74 343.506 115.7C343.506 114.66 343.896 114.27 345.456 113.88C350.526 112.45 352.086 111.28 352.086 104V67.6C352.086 58.63 350.916 56.94 346.756 55.38C345.326 54.86 344.676 54.47 344.676 53.43C344.676 52.39 345.066 51.61 347.406 51.61H358.716C360.796 51.61 361.186 52.13 361.186 53.56V62.53C362.356 60.71 369.116 50.44 381.336 50.44C393.166 50.44 400.056 58.63 400.056 71.24V104C400.056 111.28 401.616 112.45 406.686 113.88C408.246 114.27 408.636 114.66 408.636 115.7C408.636 116.74 408.246 117 407.076 117H383.676C382.506 117 382.116 116.74 382.116 115.7C382.116 114.66 382.506 114.27 384.066 113.88C389.136 112.45 390.696 111.28 390.696 104V72.93C390.696 62.92 386.146 57.2 378.346 57.2C368.596 57.2 361.186 67.34 361.186 75.01V104C361.186 111.28 362.746 112.45 367.816 113.88C369.376 114.27 369.766 114.66 369.766 115.7C369.766 116.74 369.376 117 368.206 117ZM442.442 54.34C442.442 56.81 441.792 57.07 440.232 57.07H425.282V100.75C425.282 108.03 428.662 111.8 434.382 111.8C437.762 111.8 439.582 110.76 441.792 109.59C442.442 109.2 442.702 108.94 443.222 108.94C443.872 108.94 444.262 109.46 444.262 110.11C444.262 110.63 444.002 111.15 443.482 111.93C441.792 114.53 437.632 118.56 430.352 118.56C420.992 118.56 416.182 112.58 416.182 103.61V57.07H411.502C410.462 57.07 409.812 56.55 409.812 55.64C409.812 54.86 410.202 54.34 411.242 52.91L421.902 38.87C422.552 37.96 423.202 37.57 423.982 37.57C424.892 37.57 425.282 38.35 425.282 39.26V51.61H440.232C441.792 51.61 442.442 51.87 442.442 54.34ZM465.399 118.69C458.509 118.69 452.919 116.22 449.929 114.27C448.369 113.23 447.849 112.58 447.459 110.37C446.679 105.69 446.029 100.36 446.029 98.41C446.029 97.24 446.549 96.46 447.589 96.46C448.629 96.46 448.889 97.37 449.149 98.28C452.139 108.29 457.729 113.75 465.789 113.75C472.419 113.75 477.099 109.2 477.099 103.22C477.099 98.15 474.629 94.64 468.129 91.26C463.969 89.18 463.319 88.79 459.549 86.71C450.709 81.77 447.069 75.79 447.069 67.99C447.069 57.2 455.129 50.05 467.479 50.05C472.679 50.05 477.749 51.48 480.479 52.65C482.169 53.3 482.689 53.69 483.079 55.77C483.599 58.63 484.769 67.08 484.769 68.51C484.769 69.68 484.249 70.46 483.209 70.46C482.299 70.46 481.909 69.94 481.389 68.77C478.789 61.88 474.499 54.99 466.309 54.99C459.289 54.99 455.129 59.67 455.129 65.52C455.129 70.98 458.119 74.36 464.099 77.74C467.869 79.82 468.519 80.21 472.679 82.55C482.169 87.75 485.289 93.34 485.289 100.88C485.289 110.24 478.139 118.69 465.399 118.69Z" fill="white"/>
</svg>
